G04 Layer: TopLayer*
G04 EasyEDA v6.4.7, 2020-11-27T10:47:25--5:00*
G04 dd7cd5e760c64df4b839af09766a4cc3,8c855a101c40496d9864c429bd497241,10*
G04 Gerber Generator version 0.2*
G04 Scale: 100 percent, Rotated: No, Reflected: No *
G04 Dimensions in inches *
G04 leading zeros omitted , absolute positions ,2 integer and 4 decimal *
%FSLAX24Y24*%
%MOIN*%
G90*
D02*

%ADD10C,0.010000*%
%ADD11C,0.047240*%
%ADD12C,0.010236*%
%ADD13C,0.051240*%
%ADD14C,0.024016*%
%ADD15C,0.024000*%
%ADD16R,0.043307X0.039370*%
%ADD17R,0.039370X0.043307*%
%ADD18R,0.031500X0.015750*%
%ADD19R,0.015750X0.031500*%
%ADD20R,0.047240X0.047240*%
%ADD21R,0.031500X0.031500*%

%LPD*%
G54D10*
G01X2800Y6769D02*
G01X2580Y6550D01*
G01X850Y6550D01*
G01X559Y6259D01*
G01X559Y6061D01*
G01X4868Y7900D02*
G01X4550Y8217D01*
G01X4550Y13300D01*
G01X4250Y13700D01*
G01X1250Y13700D01*
G01X900Y13350D01*
G01X850Y7700D01*
G01X750Y7550D01*
G01X450Y7550D01*
G01X250Y7350D01*
G01X250Y1000D01*
G01X286Y963D01*
G01X559Y963D01*
G01X5750Y1950D02*
G01X5767Y1967D01*
G01X6071Y1967D01*
G01X4100Y13400D02*
G01X4100Y11672D01*
G01X4102Y11669D01*
G54D11*
G01X4102Y13020D02*
G01X4102Y9555D01*
G54D10*
G01X3600Y7380D02*
G01X3201Y7782D01*
G01X3201Y7851D01*
G01X3103Y7951D01*
G01X3003Y8048D01*
G01X3103Y8148D01*
G01X3298Y8148D01*
G01X3398Y8246D01*
G01X3298Y8346D01*
G01X3103Y8346D01*
G01X3003Y8442D01*
G01X3103Y8542D01*
G01X3298Y8542D01*
G01X3398Y8638D01*
G01X3298Y8738D01*
G01X3103Y8738D01*
G01X3003Y8836D01*
G01X3103Y8936D01*
G01X3298Y8936D01*
G01X3398Y9032D01*
G01X3201Y9232D01*
G01X3201Y13019D01*
G54D12*
G01X4350Y7380D02*
G01X4100Y8450D01*
G01X4100Y8900D01*
G01X3650Y9500D01*
G01X3665Y13123D01*
G01X3388Y13401D01*
G01X2719Y13401D01*
G01X2338Y13019D01*
G54D10*
G01X2450Y6700D02*
G01X2519Y6769D01*
G01X2800Y6769D01*
G01X940Y1609D02*
G01X917Y1632D01*
G01X559Y1632D01*
G01X559Y1967D02*
G01X750Y1800D01*
G01X973Y1576D01*
G01X973Y550D01*
G01X6071Y550D02*
G01X6350Y828D01*
G01X6350Y1019D01*
G01X6071Y1298D02*
G01X6350Y1019D01*
G01X6350Y828D01*
G01X6071Y963D02*
G01X6256Y778D01*
G01X6300Y778D01*
G01X973Y550D02*
G01X1242Y280D01*
G01X1744Y280D01*
G01X1307Y550D02*
G01X1575Y282D01*
G01X1934Y282D01*
G01X1642Y550D02*
G01X1907Y284D01*
G01X2442Y284D01*
G01X1976Y550D02*
G01X2240Y286D01*
G01X3032Y286D01*
G01X2311Y550D02*
G01X2573Y288D01*
G01X3200Y288D01*
G01X2646Y550D02*
G01X2907Y288D01*
G01X3290Y288D01*
G01X2980Y550D02*
G01X3242Y288D01*
G01X3365Y288D01*
G01X3315Y550D02*
G01X3315Y288D01*
G01X3650Y550D02*
G01X3388Y288D01*
G01X3251Y288D01*
G01X3984Y550D02*
G01X3723Y288D01*
G01X3496Y288D01*
G01X4318Y550D02*
G01X4059Y290D01*
G01X3871Y290D01*
G01X6071Y550D02*
G01X5850Y328D01*
G01X5850Y300D01*
G01X832Y276D01*
G01X559Y550D01*
G01X4653Y550D02*
G01X4396Y292D01*
G01X4061Y292D01*
G01X4989Y550D02*
G01X4732Y294D01*
G01X4627Y294D01*
G01X5322Y550D02*
G01X5068Y294D01*
G01X4830Y294D01*
G01X5657Y550D02*
G01X5403Y296D01*
G01X5106Y296D01*
G01X5450Y8150D02*
G01X5490Y8109D01*
G01X5950Y8109D01*
G54D12*
G01X5950Y8700D02*
G01X5043Y9530D01*
G54D11*
G01X5043Y13350D02*
G01X5043Y9531D01*
G54D10*
G01X6071Y6061D02*
G01X3965Y3955D01*
G01X559Y6061D02*
G01X2665Y3955D01*
G54D13*
G01X3200Y13020D02*
G01X3200Y9555D01*
G54D11*
G01X2339Y13020D02*
G01X2339Y9555D01*
G01X1500Y13350D02*
G01X1500Y9531D01*
G54D12*
G01X1500Y13350D02*
G01X1500Y9530D01*
G54D10*
G01X5150Y6750D02*
G01X5150Y6800D01*
G01X4885Y7065D01*
G01X3200Y7065D01*
G01X2865Y7400D01*
G01X2800Y7400D01*
G01X2050Y7350D02*
G01X2100Y7400D01*
G01X2800Y7400D01*
G54D12*
G01X1200Y8050D02*
G01X1269Y7980D01*
G01X2050Y7980D01*
G01X5150Y7380D02*
G01X5150Y7617D01*
G01X4868Y7900D01*
G54D10*
G01X4350Y6750D02*
G01X4653Y6446D01*
G01X4653Y6061D01*
G01X3600Y6750D02*
G01X3600Y6550D01*
G01X3800Y6350D01*
G01X4300Y6350D01*
G01X4318Y6330D01*
G01X4318Y6061D01*
G01X5150Y7380D02*
G01X5169Y7400D01*
G01X5950Y7400D01*
G01X5150Y6750D02*
G01X6100Y6750D01*
G01X6400Y6450D01*
G01X6400Y1850D01*
G01X6182Y1632D01*
G01X6071Y1632D01*
G54D12*
G01X5950Y8109D02*
G01X5950Y8700D01*
G01X3201Y13019D02*
G01X3201Y9555D01*
G01X2338Y13019D02*
G01X2338Y9555D01*
G01X1209Y8567D02*
G01X1200Y8559D01*
G01X1200Y8050D01*
G01X1209Y8900D02*
G01X1209Y8734D01*
G01X1209Y8734D02*
G01X1209Y8567D01*
G01X1209Y8734D02*
G01X1500Y9025D01*
G01X1500Y9530D01*
G01X3965Y3305D02*
G01X3965Y2655D01*
G01X3965Y3630D02*
G01X3315Y3630D01*
G01X3965Y3630D02*
G01X3965Y3305D01*
G01X3315Y3955D02*
G01X3315Y3630D01*
G01X3315Y3630D02*
G01X3315Y3305D01*
G01X2665Y2980D02*
G01X3315Y2980D01*
G01X3315Y2980D02*
G01X3315Y3305D01*
G01X2665Y3305D02*
G01X2665Y2980D01*
G01X2665Y2980D02*
G01X2665Y2655D01*
G01X3315Y2980D02*
G01X3315Y2655D01*
G01X3315Y2655D02*
G01X3315Y823D01*
G01X3315Y823D01*
G01X3315Y550D02*
G01X3315Y823D01*
G01X3965Y3955D02*
G01X3965Y3630D01*
G01X2665Y3955D02*
G01X2665Y3305D01*
G01X500Y8567D02*
G01X490Y8559D01*
G01X490Y8461D01*
G01X490Y8461D02*
G01X490Y8050D01*
G01X500Y8900D02*
G01X500Y8567D01*
G54D16*
G01X4350Y7379D03*
G01X4350Y6750D03*
G01X3600Y7379D03*
G01X3600Y6750D03*
G54D17*
G01X1200Y8050D03*
G01X491Y8050D03*
G54D16*
G01X5950Y8108D03*
G01X5950Y7400D03*
G36*
G01X303Y9116D02*
G01X696Y9116D01*
G01X696Y8683D01*
G01X303Y8683D01*
G01X303Y9116D01*
G37*
G36*
G01X1011Y9116D02*
G01X1405Y9116D01*
G01X1405Y8683D01*
G01X1011Y8683D01*
G01X1011Y9116D01*
G37*
G01X2050Y7979D03*
G01X2050Y7350D03*
G01X2800Y7400D03*
G01X2800Y6770D03*
G54D18*
G01X6071Y963D03*
G01X6071Y1298D03*
G01X6071Y1632D03*
G01X6071Y1967D03*
G01X6071Y2301D03*
G01X6071Y2636D03*
G01X6071Y2971D03*
G01X6071Y3305D03*
G01X6071Y3640D03*
G01X6071Y3975D03*
G01X6071Y4309D03*
G01X6071Y4644D03*
G01X6071Y4979D03*
G01X6071Y5313D03*
G01X6071Y5648D03*
G54D19*
G01X5657Y6061D03*
G01X5323Y6061D03*
G01X4988Y6061D03*
G01X4653Y6061D03*
G01X4319Y6061D03*
G01X3984Y6061D03*
G01X3650Y6061D03*
G01X3315Y6061D03*
G01X2980Y6061D03*
G01X2646Y6061D03*
G01X2311Y6061D03*
G01X1976Y6061D03*
G01X1642Y6061D03*
G01X1307Y6061D03*
G01X972Y6061D03*
G54D18*
G01X559Y5648D03*
G01X559Y5313D03*
G01X559Y4979D03*
G01X559Y4644D03*
G01X559Y4309D03*
G01X559Y3975D03*
G01X559Y3640D03*
G01X559Y3305D03*
G01X559Y2971D03*
G01X559Y2636D03*
G01X559Y2301D03*
G01X559Y1967D03*
G01X559Y1632D03*
G01X559Y1298D03*
G01X559Y963D03*
G54D19*
G01X972Y550D03*
G01X1307Y550D03*
G01X1642Y550D03*
G01X1976Y550D03*
G01X2311Y550D03*
G01X2646Y550D03*
G01X2980Y550D03*
G01X3315Y550D03*
G01X3650Y550D03*
G01X3984Y550D03*
G01X4319Y550D03*
G01X4653Y550D03*
G01X4988Y550D03*
G01X5323Y550D03*
G01X5657Y550D03*
G54D20*
G01X3315Y3305D03*
G54D21*
G01X6071Y550D03*
G01X6071Y6061D03*
G01X559Y6061D03*
G01X559Y550D03*
G54D20*
G01X2665Y2656D03*
G01X3315Y2656D03*
G01X3965Y2656D03*
G01X2665Y3305D03*
G01X3965Y3305D03*
G01X2665Y3955D03*
G01X3315Y3955D03*
G01X3965Y3955D03*
G54D16*
G01X5150Y7379D03*
G01X5150Y6750D03*

%LPD*%
G36*
G01X5913Y1888D02*
G01X5913Y2045D01*
G01X5767Y2017D01*
G01X5767Y1917D01*
G01X5913Y1888D01*
G37*

%LPD*%
G36*
G01X5907Y2017D02*
G01X5819Y2047D01*
G01X5838Y1868D01*
G01X5917Y1917D01*
G01X5907Y2017D01*
G37*

%LPD*%
G36*
G01X5516Y6800D02*
G01X5366Y6875D01*
G01X5366Y6625D01*
G01X5516Y6700D01*
G01X5516Y6800D01*
G37*

%LPD*%
G36*
G01X6320Y1699D02*
G01X6270Y1791D01*
G01X6142Y1711D01*
G01X6229Y1553D01*
G01X6320Y1699D01*
G37*

%LPD*%
G36*
G01X6001Y8459D02*
G01X5898Y8459D01*
G01X5822Y8306D01*
G01X6077Y8306D01*
G01X6001Y8459D01*
G37*

%LPD*%
G36*
G01X5733Y7275D02*
G01X5733Y7525D01*
G01X5583Y7450D01*
G01X5583Y7350D01*
G01X5733Y7275D01*
G37*

%LPD*%
G36*
G01X5516Y7450D02*
G01X5366Y7525D01*
G01X5366Y7275D01*
G01X5516Y7350D01*
G01X5516Y7450D01*
G37*

%LPD*%
G36*
G01X5183Y6946D02*
G01X4970Y7050D01*
G01X4864Y7014D01*
G01X4933Y6945D01*
G01X5183Y6946D01*
G37*

%LPD*%
G36*
G01X4369Y6330D02*
G01X4269Y6330D01*
G01X4241Y6218D01*
G01X4398Y6218D01*
G01X4369Y6330D01*
G37*

%LPD*%
G36*
G01X4631Y6539D02*
G01X4566Y6675D01*
G01X4348Y6553D01*
G01X4540Y6488D01*
G01X4631Y6539D01*
G37*

%LPD*%
G36*
G01X4704Y6368D02*
G01X4604Y6368D01*
G01X4575Y6218D01*
G01X4734Y6218D01*
G01X4704Y6368D01*
G37*

%LPD*%
G36*
G01X4369Y6330D02*
G01X4269Y6330D01*
G01X4241Y6218D01*
G01X4398Y6218D01*
G01X4369Y6330D01*
G37*

%LPD*%
G36*
G01X3725Y6553D02*
G01X3475Y6553D01*
G01X3550Y6550D01*
G01X3650Y6550D01*
G01X3725Y6553D01*
G37*

%LPD*%
G36*
G01X402Y884D02*
G01X402Y1042D01*
G01X287Y1012D01*
G01X287Y912D01*
G01X402Y884D01*
G37*

%LPD*%
G36*
G01X1550Y8031D02*
G01X1397Y8107D01*
G01X1397Y7851D01*
G01X1550Y7928D01*
G01X1550Y8031D01*
G37*

%LPD*%
G36*
G01X1833Y7851D02*
G01X1833Y8107D01*
G01X1679Y8031D01*
G01X1679Y7928D01*
G01X1833Y7851D01*
G37*

%LPD*%
G36*
G01X3119Y7216D02*
G01X3016Y7447D01*
G01X2962Y7203D01*
G01X3093Y7100D01*
G01X3119Y7216D01*
G37*

%LPD*%
G36*
G01X2606Y4191D02*
G01X2447Y4244D01*
G01X2376Y4174D01*
G01X2429Y4015D01*
G01X2606Y4191D01*
G37*

%LPD*%
G36*
G01X771Y5920D02*
G01X718Y6076D01*
G01X536Y5904D01*
G01X698Y5851D01*
G01X771Y5920D01*
G37*

%LPD*%
G36*
G01X4254Y4174D02*
G01X4183Y4244D01*
G01X4024Y4191D01*
G01X4201Y4014D01*
G01X4254Y4174D01*
G37*

%LPD*%
G36*
G01X6089Y5904D02*
G01X5915Y6083D01*
G01X5862Y5923D01*
G01X5932Y5851D01*
G01X6089Y5904D01*
G37*

%LPD*%
G36*
G01X5733Y7983D02*
G01X5733Y8233D01*
G01X5583Y8158D01*
G01X5583Y8058D01*
G01X5733Y7983D01*
G37*

%LPD*%
G36*
G01X5621Y8158D02*
G01X5549Y8217D01*
G01X5504Y8042D01*
G01X5594Y8058D01*
G01X5621Y8158D01*
G37*

%LPD*%
G36*
G01X1022Y857D02*
G01X922Y857D01*
G01X894Y707D01*
G01X1052Y707D01*
G01X1022Y857D01*
G37*

%LPD*%
G36*
G01X771Y408D02*
G01X718Y565D01*
G01X537Y392D01*
G01X699Y339D01*
G01X771Y408D01*
G37*

%LPD*%
G36*
G01X6089Y392D02*
G01X5915Y572D01*
G01X5862Y411D01*
G01X5931Y339D01*
G01X6089Y392D01*
G37*

%LPD*%
G36*
G01X5579Y392D02*
G01X5579Y596D01*
G01X5429Y392D01*
G01X5429Y250D01*
G01X5579Y392D01*
G37*

%LPD*%
G36*
G01X5244Y392D02*
G01X5244Y595D01*
G01X5094Y391D01*
G01X5094Y250D01*
G01X5244Y392D01*
G37*

%LPD*%
G36*
G01X4911Y392D02*
G01X4911Y597D01*
G01X4761Y393D01*
G01X4761Y251D01*
G01X4911Y392D01*
G37*

%LPD*%
G36*
G01X4575Y392D02*
G01X4575Y596D01*
G01X4425Y392D01*
G01X4425Y250D01*
G01X4575Y392D01*
G37*

%LPD*%
G36*
G01X4241Y392D02*
G01X4241Y597D01*
G01X4091Y392D01*
G01X4091Y251D01*
G01X4241Y392D01*
G37*

%LPD*%
G36*
G01X3907Y392D02*
G01X3907Y597D01*
G01X3757Y393D01*
G01X3757Y251D01*
G01X3907Y392D01*
G37*

%LPD*%
G36*
G01X3571Y392D02*
G01X3571Y596D01*
G01X3421Y392D01*
G01X3421Y250D01*
G01X3571Y392D01*
G37*

%LPD*%
G36*
G01X3394Y392D02*
G01X3238Y392D01*
G01X3264Y288D01*
G01X3364Y288D01*
G01X3394Y392D01*
G37*

%LPD*%
G36*
G01X3210Y391D02*
G01X3060Y595D01*
G01X3060Y392D01*
G01X3210Y249D01*
G01X3210Y391D01*
G37*

%LPD*%
G36*
G01X2875Y391D02*
G01X2725Y595D01*
G01X2725Y392D01*
G01X2875Y250D01*
G01X2875Y391D01*
G37*

%LPD*%
G36*
G01X2541Y390D02*
G01X2391Y595D01*
G01X2391Y392D01*
G01X2541Y249D01*
G01X2541Y390D01*
G37*

%LPD*%
G36*
G01X2205Y392D02*
G01X2055Y596D01*
G01X2055Y392D01*
G01X2205Y250D01*
G01X2205Y392D01*
G37*

%LPD*%
G36*
G01X1871Y391D02*
G01X1721Y595D01*
G01X1721Y392D01*
G01X1871Y250D01*
G01X1871Y391D01*
G37*

%LPD*%
G36*
G01X1537Y390D02*
G01X1387Y595D01*
G01X1387Y392D01*
G01X1537Y249D01*
G01X1537Y390D01*
G37*

%LPD*%
G36*
G01X1202Y391D02*
G01X1052Y595D01*
G01X1052Y392D01*
G01X1202Y249D01*
G01X1202Y391D01*
G37*

%LPD*%
G36*
G01X6282Y690D02*
G01X6211Y760D01*
G01X6051Y707D01*
G01X6229Y532D01*
G01X6282Y690D01*
G37*

%LPD*%
G36*
G01X6229Y1218D02*
G01X6025Y1218D01*
G01X6229Y1068D01*
G01X6371Y1068D01*
G01X6229Y1218D01*
G37*

%LPD*%
G36*
G01X6229Y884D02*
G01X6024Y884D01*
G01X6185Y778D01*
G01X6291Y814D01*
G01X6229Y884D01*
G37*

%LPD*%
G36*
G01X866Y1682D02*
G01X716Y1711D01*
G01X716Y1553D01*
G01X866Y1582D01*
G01X866Y1682D01*
G37*

%LPD*%
G36*
G01X2583Y6645D02*
G01X2583Y6895D01*
G01X2520Y6820D01*
G01X2520Y6720D01*
G01X2583Y6645D01*
G37*

%LPD*%
G36*
G01X3601Y7577D02*
G01X3409Y7641D01*
G01X3318Y7590D01*
G01X3383Y7454D01*
G01X3601Y7577D01*
G37*

%LPD*%
G36*
G01X4190Y13320D02*
G01X4009Y13320D01*
G01X4050Y13236D01*
G01X4150Y13236D01*
G01X4190Y13320D01*
G37*

%LPD*%
G36*
G01X2801Y6572D02*
G01X2583Y6695D01*
G01X2544Y6585D01*
G01X2625Y6524D01*
G01X2801Y6572D01*
G37*

%LPD*%
G36*
G01X609Y6259D02*
G01X509Y6259D01*
G01X434Y6218D01*
G01X684Y6218D01*
G01X609Y6259D01*
G37*
G54D14*
G01X5750Y1950D03*
G54D15*
G01X490Y8461D03*
G01X5450Y8150D03*
G01X3300Y200D03*
G01X4100Y13400D03*
M00*
M02*
