G04 Layer: TopSolderMaskLayer*
G04 EasyEDA v6.4.7, 2020-11-27T10:47:25--5:00*
G04 dd7cd5e760c64df4b839af09766a4cc3,8c855a101c40496d9864c429bd497241,10*
G04 Gerber Generator version 0.2*
G04 Scale: 100 percent, Rotated: No, Reflected: No *
G04 Dimensions in inches *
G04 leading zeros omitted , absolute positions ,2 integer and 4 decimal *
%FSLAX24Y24*%
%MOIN*%
G90*
D02*

%ADD13C,0.051240*%
%ADD24C,0.055240*%

%LPD*%
G54D13*
G01X5043Y13350D02*
G01X5043Y9531D01*
G01X4102Y13020D02*
G01X4102Y9555D01*
G54D24*
G01X3200Y13020D02*
G01X3200Y9555D01*
G54D13*
G01X1500Y13350D02*
G01X1500Y9531D01*
G01X2339Y13020D02*
G01X2339Y9555D01*
G01X2339Y13020D02*
G01X2339Y9555D01*
G36*
G01X4092Y7142D02*
G01X4092Y7617D01*
G01X4606Y7617D01*
G01X4606Y7142D01*
G01X4092Y7142D01*
G37*
G36*
G01X4092Y6513D02*
G01X4092Y6986D01*
G01X4606Y6986D01*
G01X4606Y6513D01*
G01X4092Y6513D01*
G37*
G36*
G01X3342Y7142D02*
G01X3342Y7617D01*
G01X3857Y7617D01*
G01X3857Y7142D01*
G01X3342Y7142D01*
G37*
G36*
G01X3342Y6513D02*
G01X3342Y6986D01*
G01X3857Y6986D01*
G01X3857Y6513D01*
G01X3342Y6513D01*
G37*
G36*
G01X963Y7792D02*
G01X963Y8307D01*
G01X1436Y8307D01*
G01X1436Y7792D01*
G01X963Y7792D01*
G37*
G36*
G01X253Y7792D02*
G01X253Y8307D01*
G01X728Y8307D01*
G01X728Y7792D01*
G01X253Y7792D01*
G37*
G36*
G01X5693Y7871D02*
G01X5693Y8346D01*
G01X6206Y8346D01*
G01X6206Y7871D01*
G01X5693Y7871D01*
G37*
G36*
G01X5693Y7163D02*
G01X5693Y7636D01*
G01X6206Y7636D01*
G01X6206Y7163D01*
G01X5693Y7163D01*
G37*
G36*
G01X263Y8642D02*
G01X263Y9157D01*
G01X736Y9157D01*
G01X736Y8642D01*
G01X263Y8642D01*
G37*
G36*
G01X971Y8642D02*
G01X971Y9157D01*
G01X1446Y9157D01*
G01X1446Y8642D01*
G01X971Y8642D01*
G37*
G36*
G01X1792Y7742D02*
G01X1792Y8217D01*
G01X2307Y8217D01*
G01X2307Y7742D01*
G01X1792Y7742D01*
G37*
G36*
G01X1792Y7113D02*
G01X1792Y7586D01*
G01X2307Y7586D01*
G01X2307Y7113D01*
G01X1792Y7113D01*
G37*
G36*
G01X2542Y7163D02*
G01X2542Y7636D01*
G01X3057Y7636D01*
G01X3057Y7163D01*
G01X2542Y7163D01*
G37*
G36*
G01X2542Y6532D02*
G01X2542Y7007D01*
G01X3057Y7007D01*
G01X3057Y6532D01*
G01X2542Y6532D01*
G37*
G36*
G01X5873Y844D02*
G01X5873Y1082D01*
G01X6268Y1082D01*
G01X6268Y844D01*
G01X5873Y844D01*
G37*
G36*
G01X5873Y1178D02*
G01X5873Y1417D01*
G01X6268Y1417D01*
G01X6268Y1178D01*
G01X5873Y1178D01*
G37*
G36*
G01X5873Y1513D02*
G01X5873Y1751D01*
G01X6268Y1751D01*
G01X6268Y1513D01*
G01X5873Y1513D01*
G37*
G36*
G01X5873Y1848D02*
G01X5873Y2086D01*
G01X6268Y2086D01*
G01X6268Y1848D01*
G01X5873Y1848D01*
G37*
G36*
G01X5873Y2182D02*
G01X5873Y2421D01*
G01X6268Y2421D01*
G01X6268Y2182D01*
G01X5873Y2182D01*
G37*
G36*
G01X5873Y2517D02*
G01X5873Y2755D01*
G01X6268Y2755D01*
G01X6268Y2517D01*
G01X5873Y2517D01*
G37*
G36*
G01X5873Y2853D02*
G01X5873Y3090D01*
G01X6268Y3090D01*
G01X6268Y2853D01*
G01X5873Y2853D01*
G37*
G36*
G01X5873Y3186D02*
G01X5873Y3425D01*
G01X6268Y3425D01*
G01X6268Y3186D01*
G01X5873Y3186D01*
G37*
G36*
G01X5873Y3521D02*
G01X5873Y3759D01*
G01X6268Y3759D01*
G01X6268Y3521D01*
G01X5873Y3521D01*
G37*
G36*
G01X5873Y3855D02*
G01X5873Y4094D01*
G01X6268Y4094D01*
G01X6268Y3855D01*
G01X5873Y3855D01*
G37*
G36*
G01X5873Y4190D02*
G01X5873Y4428D01*
G01X6268Y4428D01*
G01X6268Y4190D01*
G01X5873Y4190D01*
G37*
G36*
G01X5873Y4526D02*
G01X5873Y4763D01*
G01X6268Y4763D01*
G01X6268Y4526D01*
G01X5873Y4526D01*
G37*
G36*
G01X5873Y4859D02*
G01X5873Y5098D01*
G01X6268Y5098D01*
G01X6268Y4859D01*
G01X5873Y4859D01*
G37*
G36*
G01X5873Y5194D02*
G01X5873Y5432D01*
G01X6268Y5432D01*
G01X6268Y5194D01*
G01X5873Y5194D01*
G37*
G36*
G01X5873Y5530D02*
G01X5873Y5767D01*
G01X6268Y5767D01*
G01X6268Y5530D01*
G01X5873Y5530D01*
G37*
G36*
G01X5539Y5863D02*
G01X5539Y6259D01*
G01X5777Y6259D01*
G01X5777Y5863D01*
G01X5539Y5863D01*
G37*
G36*
G01X5205Y5863D02*
G01X5205Y6259D01*
G01X5442Y6259D01*
G01X5442Y5863D01*
G01X5205Y5863D01*
G37*
G36*
G01X4869Y5863D02*
G01X4869Y6259D01*
G01X5106Y6259D01*
G01X5106Y5863D01*
G01X4869Y5863D01*
G37*
G36*
G01X4535Y5863D02*
G01X4535Y6259D01*
G01X4772Y6259D01*
G01X4772Y5863D01*
G01X4535Y5863D01*
G37*
G36*
G01X4201Y5863D02*
G01X4201Y6259D01*
G01X4438Y6259D01*
G01X4438Y5863D01*
G01X4201Y5863D01*
G37*
G36*
G01X3865Y5863D02*
G01X3865Y6259D01*
G01X4103Y6259D01*
G01X4103Y5863D01*
G01X3865Y5863D01*
G37*
G36*
G01X3530Y5863D02*
G01X3530Y6259D01*
G01X3769Y6259D01*
G01X3769Y5863D01*
G01X3530Y5863D01*
G37*
G36*
G01X3196Y5863D02*
G01X3196Y6259D01*
G01X3434Y6259D01*
G01X3434Y5863D01*
G01X3196Y5863D01*
G37*
G36*
G01X2861Y5863D02*
G01X2861Y6259D01*
G01X3100Y6259D01*
G01X3100Y5863D01*
G01X2861Y5863D01*
G37*
G36*
G01X2526Y5863D02*
G01X2526Y6259D01*
G01X2765Y6259D01*
G01X2765Y5863D01*
G01X2526Y5863D01*
G37*
G36*
G01X2192Y5863D02*
G01X2192Y6259D01*
G01X2430Y6259D01*
G01X2430Y5863D01*
G01X2192Y5863D01*
G37*
G36*
G01X1857Y5863D02*
G01X1857Y6259D01*
G01X2096Y6259D01*
G01X2096Y5863D01*
G01X1857Y5863D01*
G37*
G36*
G01X1523Y5863D02*
G01X1523Y6259D01*
G01X1761Y6259D01*
G01X1761Y5863D01*
G01X1523Y5863D01*
G37*
G36*
G01X1188Y5863D02*
G01X1188Y6259D01*
G01X1426Y6259D01*
G01X1426Y5863D01*
G01X1188Y5863D01*
G37*
G36*
G01X853Y5863D02*
G01X853Y6259D01*
G01X1092Y6259D01*
G01X1092Y5863D01*
G01X853Y5863D01*
G37*
G36*
G01X361Y5530D02*
G01X361Y5767D01*
G01X757Y5767D01*
G01X757Y5530D01*
G01X361Y5530D01*
G37*
G36*
G01X361Y5194D02*
G01X361Y5432D01*
G01X757Y5432D01*
G01X757Y5194D01*
G01X361Y5194D01*
G37*
G36*
G01X361Y4859D02*
G01X361Y5098D01*
G01X757Y5098D01*
G01X757Y4859D01*
G01X361Y4859D01*
G37*
G36*
G01X361Y4526D02*
G01X361Y4763D01*
G01X757Y4763D01*
G01X757Y4526D01*
G01X361Y4526D01*
G37*
G36*
G01X361Y4190D02*
G01X361Y4428D01*
G01X757Y4428D01*
G01X757Y4190D01*
G01X361Y4190D01*
G37*
G36*
G01X361Y3855D02*
G01X361Y4094D01*
G01X757Y4094D01*
G01X757Y3855D01*
G01X361Y3855D01*
G37*
G36*
G01X361Y3521D02*
G01X361Y3759D01*
G01X757Y3759D01*
G01X757Y3521D01*
G01X361Y3521D01*
G37*
G36*
G01X361Y3186D02*
G01X361Y3425D01*
G01X757Y3425D01*
G01X757Y3186D01*
G01X361Y3186D01*
G37*
G36*
G01X361Y2853D02*
G01X361Y3090D01*
G01X757Y3090D01*
G01X757Y2853D01*
G01X361Y2853D01*
G37*
G36*
G01X361Y2517D02*
G01X361Y2755D01*
G01X757Y2755D01*
G01X757Y2517D01*
G01X361Y2517D01*
G37*
G36*
G01X361Y2182D02*
G01X361Y2421D01*
G01X757Y2421D01*
G01X757Y2182D01*
G01X361Y2182D01*
G37*
G36*
G01X361Y1848D02*
G01X361Y2086D01*
G01X757Y2086D01*
G01X757Y1848D01*
G01X361Y1848D01*
G37*
G36*
G01X361Y1513D02*
G01X361Y1751D01*
G01X757Y1751D01*
G01X757Y1513D01*
G01X361Y1513D01*
G37*
G36*
G01X361Y1178D02*
G01X361Y1417D01*
G01X757Y1417D01*
G01X757Y1178D01*
G01X361Y1178D01*
G37*
G36*
G01X361Y844D02*
G01X361Y1082D01*
G01X757Y1082D01*
G01X757Y844D01*
G01X361Y844D01*
G37*
G36*
G01X853Y351D02*
G01X853Y746D01*
G01X1092Y746D01*
G01X1092Y351D01*
G01X853Y351D01*
G37*
G36*
G01X1188Y351D02*
G01X1188Y746D01*
G01X1426Y746D01*
G01X1426Y351D01*
G01X1188Y351D01*
G37*
G36*
G01X1523Y351D02*
G01X1523Y746D01*
G01X1761Y746D01*
G01X1761Y351D01*
G01X1523Y351D01*
G37*
G36*
G01X1857Y351D02*
G01X1857Y746D01*
G01X2096Y746D01*
G01X2096Y351D01*
G01X1857Y351D01*
G37*
G36*
G01X2192Y351D02*
G01X2192Y746D01*
G01X2430Y746D01*
G01X2430Y351D01*
G01X2192Y351D01*
G37*
G36*
G01X2526Y351D02*
G01X2526Y746D01*
G01X2765Y746D01*
G01X2765Y351D01*
G01X2526Y351D01*
G37*
G36*
G01X2861Y351D02*
G01X2861Y746D01*
G01X3100Y746D01*
G01X3100Y351D01*
G01X2861Y351D01*
G37*
G36*
G01X3196Y351D02*
G01X3196Y746D01*
G01X3434Y746D01*
G01X3434Y351D01*
G01X3196Y351D01*
G37*
G36*
G01X3530Y351D02*
G01X3530Y746D01*
G01X3769Y746D01*
G01X3769Y351D01*
G01X3530Y351D01*
G37*
G36*
G01X3865Y351D02*
G01X3865Y746D01*
G01X4103Y746D01*
G01X4103Y351D01*
G01X3865Y351D01*
G37*
G36*
G01X4201Y351D02*
G01X4201Y746D01*
G01X4438Y746D01*
G01X4438Y351D01*
G01X4201Y351D01*
G37*
G36*
G01X4535Y351D02*
G01X4535Y746D01*
G01X4772Y746D01*
G01X4772Y351D01*
G01X4535Y351D01*
G37*
G36*
G01X4869Y351D02*
G01X4869Y746D01*
G01X5106Y746D01*
G01X5106Y351D01*
G01X4869Y351D01*
G37*
G36*
G01X5205Y351D02*
G01X5205Y746D01*
G01X5442Y746D01*
G01X5442Y351D01*
G01X5205Y351D01*
G37*
G36*
G01X5539Y351D02*
G01X5539Y746D01*
G01X5777Y746D01*
G01X5777Y351D01*
G01X5539Y351D01*
G37*
G36*
G01X3038Y3030D02*
G01X3038Y3582D01*
G01X3592Y3582D01*
G01X3592Y3030D01*
G01X3038Y3030D01*
G37*
G36*
G01X5873Y351D02*
G01X5873Y746D01*
G01X6268Y746D01*
G01X6268Y351D01*
G01X5873Y351D01*
G37*
G36*
G01X5873Y5863D02*
G01X5873Y6259D01*
G01X6268Y6259D01*
G01X6268Y5863D01*
G01X5873Y5863D01*
G37*
G36*
G01X361Y5863D02*
G01X361Y6259D01*
G01X757Y6259D01*
G01X757Y5863D01*
G01X361Y5863D01*
G37*
G36*
G01X361Y351D02*
G01X361Y746D01*
G01X757Y746D01*
G01X757Y351D01*
G01X361Y351D01*
G37*
G36*
G01X2390Y2380D02*
G01X2390Y2932D01*
G01X2942Y2932D01*
G01X2942Y2380D01*
G01X2390Y2380D01*
G37*
G36*
G01X3038Y2380D02*
G01X3038Y2932D01*
G01X3592Y2932D01*
G01X3592Y2380D01*
G01X3038Y2380D01*
G37*
G36*
G01X3688Y2380D02*
G01X3688Y2932D01*
G01X4240Y2932D01*
G01X4240Y2380D01*
G01X3688Y2380D01*
G37*
G36*
G01X2390Y3030D02*
G01X2390Y3582D01*
G01X2942Y3582D01*
G01X2942Y3030D01*
G01X2390Y3030D01*
G37*
G36*
G01X3688Y3030D02*
G01X3688Y3582D01*
G01X4240Y3582D01*
G01X4240Y3030D01*
G01X3688Y3030D01*
G37*
G36*
G01X2390Y3678D02*
G01X2390Y4232D01*
G01X2942Y4232D01*
G01X2942Y3678D01*
G01X2390Y3678D01*
G37*
G36*
G01X3038Y3678D02*
G01X3038Y4232D01*
G01X3592Y4232D01*
G01X3592Y3678D01*
G01X3038Y3678D01*
G37*
G36*
G01X3688Y3678D02*
G01X3688Y4232D01*
G01X4240Y4232D01*
G01X4240Y3678D01*
G01X3688Y3678D01*
G37*
G36*
G01X4893Y7142D02*
G01X4893Y7617D01*
G01X5406Y7617D01*
G01X5406Y7142D01*
G01X4893Y7142D01*
G37*
G36*
G01X4893Y6513D02*
G01X4893Y6986D01*
G01X5406Y6986D01*
G01X5406Y6513D01*
G01X4893Y6513D01*
G37*
M00*
M02*
